<?xml version="1.0" encoding="UTF-8"?>
<svg width="240" height="100" viewBox="0 0 240 100" xmlns="http://www.w3.org/2000/svg">
  <!-- Exact reproduction of HNF Global Solutions logo -->
  <g transform="translate(10,10)">
    <!-- Outer circle segments - starting from top, going clockwise -->
    <!-- Top segments -->
    <path d="M40,10 L50,5 L60,15 L45,20 Z" fill="#7DB8E8"/>
    <path d="M50,5 L65,0 L70,15 L60,15 Z" fill="#5BA3D4"/>
    <path d="M65,0 L75,5 L80,20 L70,15 Z" fill="#87CEEB"/>
    
    <!-- Right segments -->
    <path d="M75,5 L85,15 L80,30 L75,25 Z" fill="#4A90C2"/>
    <path d="M80,30 L85,45 L75,50 L70,35 Z" fill="#3A7CAE"/>
    <path d="M75,50 L70,65 L55,70 L60,55 Z" fill="#2E5B8A"/>
    
    <!-- Bottom segments -->
    <path d="M55,70 L40,75 L35,60 L50,65 Z" fill="#1E3A66"/>
    <path d="M35,60 L20,65 L15,50 L30,55 Z" fill="#2E4A76"/>
    <path d="M15,50 L10,35 L25,30 L30,45 Z" fill="#3A5A86"/>
    
    <!-- Left segments -->
    <path d="M10,35 L5,20 L20,15 L25,30 Z" fill="#4A6A96"/>
    <path d="M5,20 L15,5 L30,10 L25,25 Z" fill="#5A7AA6"/>
    <path d="M25,25 L30,10 L40,10 L35,25 Z" fill="#6A8AB6"/>
    
    <!-- Inner segments -->
    <path d="M30,25 L40,20 L50,30 L40,35 Z" fill="#1E3A66"/>
    <path d="M40,35 L50,30 L60,40 L50,45 Z" fill="#2E4A76"/>
    <path d="M50,45 L60,40 L55,50 L45,50 Z" fill="#3A5A86"/>
    <path d="M45,50 L35,45 L40,35 L50,45 Z" fill="#4A6A96"/>
    <path d="M35,45 L30,35 L40,30 L45,40 Z" fill="#5A7AA6"/>
    <path d="M30,35 L35,25 L45,30 L40,40 Z" fill="#6A8AB6"/>
  </g>
  
  <!-- HNF Text - exact positioning and styling -->
  <text x="110" y="45" font-family="Arial Black, sans-serif" font-size="32" font-weight="900" fill="#2E4A76">HNF</text>
  
  <!-- GLOBAL SOLUTIONS Text - exact positioning -->
  <text x="110" y="65" font-family="Arial, sans-serif" font-size="14" font-weight="normal" fill="#4A6A96" letter-spacing="2px">GLOBAL SOLUTIONS</text>
</svg>
